HIERARCHY
ROOT hip
{
  OFFSET 0 0 0
  CHANNELS 6 Xposition Yposition Zposition Zrotation Yrotation Xrotation
  JOINT abdomen
  {
    OFFSET 0 20.6881 -0.73152
    CHANNELS 3 Zrotation Xrotation Yrotation
    JOINT chest
    {
      OFFSET 0 11.7043 -0.48768
      CHANNELS 3 Zrotation Xrotation Yrotation
      JOINT neck
      {
        OFFSET 0 22.1894 -2.19456
        CHANNELS 3 Zrotation Xrotation Yrotation
        JOINT head
        {
          OFFSET -0.24384 7.07133 1.2192
          CHANNELS 3 Zrotation Xrotation Yrotation
          JOINT leftEye
          {
            OFFSET 4.14528 8.04674 8.04672
            CHANNELS 3 Zrotation Xrotation Yrotation
            End Site
            {
              OFFSET 1 0 0
            }
          }
          JOINT rightEye
          {
            OFFSET -3.6576 8.04674 8.04672
            CHANNELS 3 Zrotation Xrotation Yrotation
            End Site
            {
              OFFSET 1 0 0
            }
          }
        }
      }
      JOINT rCollar
      {
        OFFSET -2.68224 19.2634 -4.8768
        CHANNELS 3 Zrotation Xrotation Yrotation
        JOINT rShldr
        {
          OFFSET -8.77824 -1.95073 1.46304
          CHANNELS 3 Zrotation Xrotation Yrotation
          JOINT rForeArm
          {
            OFFSET -28.1742 -1.7115 0.48768
            CHANNELS 3 Zrotation Xrotation Yrotation
            JOINT rHand
            {
              OFFSET -22.5879 0.773209 7.07136
              CHANNELS 3 Zrotation Xrotation Yrotation
              JOINT rThumb1
              {
                OFFSET -1.2192 -0.487915 3.41376
                CHANNELS 3 Zrotation Xrotation Yrotation
                JOINT rThumb2
                {
                  OFFSET -3.37035 -0.52449 3.41376
                  CHANNELS 3 Zrotation Xrotation Yrotation
                  End Site
                  {
                    OFFSET -1.78271 -1.18214 1.43049
                  }
                }
              }
              JOINT rIndex1
              {
                OFFSET -7.75947 0.938293 5.60832
                CHANNELS 3 Zrotation Xrotation Yrotation
                JOINT rIndex2
                {
                  OFFSET -2.54057 -0.884171 1.56538
                  CHANNELS 3 Zrotation Xrotation Yrotation
                  End Site
                  {
                    OFFSET -1.62519 -0.234802 1.16502
                  }
                }
              }
              JOINT rMid1
              {
                OFFSET -8.24714 1.18213 3.41376
                CHANNELS 3 Zrotation Xrotation Yrotation
                JOINT rMid2
                {
                  OFFSET -3.10165 -0.590103 1.0647
                  CHANNELS 3 Zrotation Xrotation Yrotation
                  End Site
                  {
                    OFFSET -2.48547 -0.328903 0.83742
                  }
                }
              }
              JOINT rRing1
              {
                OFFSET -8.82822 0.546677 1.51678
                CHANNELS 3 Zrotation Xrotation Yrotation
                JOINT rRing2
                {
                  OFFSET -2.60934 -0.819778 -0.0198488
                  CHANNELS 3 Zrotation Xrotation Yrotation
                  End Site
                  {
                    OFFSET -2.33842 -0.294052 0.168128
                  }
                }
              }
              JOINT rPinky1
              {
                OFFSET -8.27202 -0.0477905 -0.4584
                CHANNELS 3 Zrotation Xrotation Yrotation
                JOINT rPinky2
                {
                  OFFSET -1.82734 -0.647385 -0.700984
                  CHANNELS 3 Zrotation Xrotation Yrotation
                  End Site
                  {
                    OFFSET -1.69225 -0.51767 -0.607171
                  }
                }
              }
            }
          }
        }
      }
      JOINT lCollar
      {
        OFFSET 2.68224 19.2634 -4.8768
        CHANNELS 3 Zrotation Xrotation Yrotation
        JOINT lShldr
        {
          OFFSET 8.77824 -1.95073 1.46304
          CHANNELS 3 Zrotation Xrotation Yrotation
          JOINT lForeArm
          {
            OFFSET 28.1742 -1.7115 0.48768
            CHANNELS 3 Zrotation Xrotation Yrotation
            JOINT lHand
            {
              OFFSET 22.5879 0.773209 7.07136
              CHANNELS 3 Zrotation Xrotation Yrotation
              JOINT lThumb1
              {
                OFFSET 1.2192 -0.487915 3.41376
                CHANNELS 3 Zrotation Xrotation Yrotation
                JOINT lThumb2
                {
                  OFFSET 3.37035 -0.52449 3.41376
                  CHANNELS 3 Zrotation Xrotation Yrotation
                  End Site
                  {
                    OFFSET 1.78271 -1.18214 1.43049
                  }
                }
              }
              JOINT lIndex1
              {
                OFFSET 7.75947 0.938293 5.60832
                CHANNELS 3 Zrotation Xrotation Yrotation
                JOINT lIndex2
                {
                  OFFSET 2.54057 -0.884171 1.56538
                  CHANNELS 3 Zrotation Xrotation Yrotation
                  End Site
                  {
                    OFFSET 1.62519 -0.234802 1.16502
                  }
                }
              }
              JOINT lMid1
              {
                OFFSET 8.24714 1.18213 3.41376
                CHANNELS 3 Zrotation Xrotation Yrotation
                JOINT lMid2
                {
                  OFFSET 3.10165 -0.590103 1.0647
                  CHANNELS 3 Zrotation Xrotation Yrotation
                  End Site
                  {
                    OFFSET 2.48547 -0.328903 0.83742
                  }
                }
              }
              JOINT lRing1
              {
                OFFSET 8.82822 0.546677 1.51678
                CHANNELS 3 Zrotation Xrotation Yrotation
                JOINT lRing2
                {
                  OFFSET 2.60934 -0.819778 -0.0198488
                  CHANNELS 3 Zrotation Xrotation Yrotation
                  End Site
                  {
                    OFFSET 2.33842 -0.294052 0.168128
                  }
                }
              }
              JOINT lPinky1
              {
                OFFSET 8.27202 -0.0477905 -0.4584
                CHANNELS 3 Zrotation Xrotation Yrotation
                JOINT lPinky2
                {
                  OFFSET 1.82734 -0.647385 -0.700984
                  CHANNELS 3 Zrotation Xrotation Yrotation
                  End Site
                  {
                    OFFSET 1.69225 -0.51767 -0.607171
                  }
                }
              }
            }
          }
        }
      }
    }
  }
  JOINT rButtock
  {
    OFFSET -8.77824 4.35084 1.2192
    CHANNELS 3 Zrotation Xrotation Yrotation
    JOINT rThigh
    {
      OFFSET 0 -1.70687 -2.19456
      CHANNELS 3 Zrotation Xrotation Yrotation
      JOINT rShin
      {
        OFFSET 0 -36.8199 0.73152
        CHANNELS 3 Zrotation Xrotation Yrotation
        JOINT rFoot
        {
          OFFSET 0.73152 -45.1104 -5.12064
          CHANNELS 3 Zrotation Xrotation Yrotation
          End Site
          {
            OFFSET -1.1221 -3.69964 12.103
          }
        }
      }
    }
  }
  JOINT lButtock
  {
    OFFSET 8.77824 4.35084 1.2192
    CHANNELS 3 Zrotation Xrotation Yrotation
    JOINT lThigh
    {
      OFFSET 0 -1.70687 -2.19456
      CHANNELS 3 Zrotation Xrotation Yrotation
      JOINT lShin
      {
        OFFSET 0 -36.8199 0.73152
        CHANNELS 3 Zrotation Xrotation Yrotation
        JOINT lFoot
        {
          OFFSET -0.73152 -45.1104 -5.12064
          CHANNELS 3 Zrotation Xrotation Yrotation
          End Site
          {
            OFFSET 1.1221 -3.69964 12.103
          }
        }
      }
    }
  }
}
MOTION
Frames:	6
Frame Time:	0.00833333
41.0824 85.5886 211.913 0.0 0.0 0.0 2.72259 0.000518365 0.0736203 0.750835 0.0131642 0.129929 -1.13377e-13 -7.95139e-16 4.96961e-17 -3.41208e-13 3.18055e-15 2.96624e-16 -0.0 0.0 0.0 -0.0 0.0 0.0 -5.69544e-14 9.78393e-17 2.98177e-16 -1.19113e-12 1.59028e-15 -2.18663e-15 -2.05842e-11 6.1991e-12 2.06736e-13 -2.35034e-10 -5.77661e-12 -2.00375e-13 -5.54501e-10 9.23172e-13 7.31528e-14 -9.57616e-10 1.59346e-12 1.48691e-13 -5.54495e-10 9.23156e-13 7.31528e-14 7.73091 5.47488 0.417314 -5.54501e-10 9.22659e-13 8.26944e-14 2.90554 0.965183 0.102902 -5.54489e-10 9.23255e-13 7.95139e-14 10.2786 0.731801 0.0259123 -5.54503e-10 9.25939e-13 8.5875e-14 2.22167 -0.733487 -0.20892 -5.70523e-14 9.47333e-17 -9.93923e-17 -1.19499e-12 2.07482e-15 -4.17448e-15 -2.05071e-11 -6.08639e-12 1.97194e-13 -2.35118e-10 6.5431e-12 -1.68569e-13 -5.54511e-10 9.92336e-13 8.5875e-14 -9.57595e-10 1.71432e-12 1.75726e-13 -5.54515e-10 9.95911e-13 1.04958e-13 -7.73091 5.47488 -0.417314 -5.5451e-10 9.92432e-13 8.5875e-14 -2.90554 0.965183 -0.102902 -5.54513e-10 9.92532e-13 8.66701e-14 -10.2786 0.731801 -0.0259123 -5.54507e-10 9.93128e-13 7.63333e-14 -2.22167 -0.733487 0.20892 -2.03217e-16 0.0 -3.88251e-19 2.53296 -8.65199 -0.274471 0.0073952 10.0933 0.189518 -0.516876 -1.45222 0.0286144 2.03217e-16 0.0 3.88251e-19 1.60788 -1.93183 -0.00953278 0.00859951 -2.07865 0.0706354 0.458857 3.99948 -0.132475
42.9691 84.4456 202.771 -179.177 2.1153 -174.993 2.21436 -1.50095 0.568255 2.22727 1.29751 0.219311 -1.24558 2.40988 -0.836509 1.92331 0.977383 -0.598491 -0.0 0.0 0.0 -0.0 0.0 0.0 -4.83301e-14 3.78385e-14 -1.23375e-14 22.63 -4.42043 -2.3103 -3.4186 -1.42175 5.47428 0.0707648 5.93653 0.818547 -2.48054e-10 2.75993e-11 -4.56496e-10 -4.36707e-10 4.90445e-11 -7.91414e-10 -2.48049e-10 2.75986e-11 -4.56499e-10 7.73091 5.47488 0.417314 -2.48055e-10 2.7598e-11 -4.56488e-10 2.90554 0.965183 0.102902 -2.48045e-10 2.75989e-11 -4.56491e-10 10.2786 0.731801 0.0259123 -2.48057e-10 2.76024e-11 -4.56484e-10 2.22167 -0.733487 -0.20892 -4.83911e-14 3.78397e-14 -1.26818e-14 -22.3081 5.55099 -2.52672 2.36667 -0.861296 -3.89645 -0.180076 9.43724 -1.26227 -5.94727e-10 1.5565e-10 3.70197e-10 -1.01591e-09 2.78793e-10 6.43723e-10 -5.9473e-10 1.55652e-10 3.7021e-10 -7.73091 5.47488 -0.417314 -5.94726e-10 1.55652e-10 3.70196e-10 -2.90554 0.965183 -0.102902 -5.94732e-10 1.55651e-10 3.70196e-10 -10.2786 0.731801 -0.0259123 -5.94725e-10 1.5565e-10 3.70187e-10 -2.22167 -0.733487 0.20892 -2.03217e-16 0.0 -3.88251e-19 3.41968 -10.0275 0.0894052 0.018543 13.023 0.238653 -0.568735 -5.2951 -0.463978 2.03217e-16 0.0 3.88251e-19 1.88526 -5.531 -2.44486 -0.0035681 5.10633 -0.0826712 0.663556 -2.10993 1.86369
42.8596 84.4456 202.867 -179.481 2.3546 -175.003 1.70783 -3.08707 1.09371 3.78261 2.65741 0.314367 -2.4912 4.97542 -1.72572 3.98261 1.93423 -1.2431 -0.0 0.0 0.0 -0.0 0.0 0.0 -3.98345e-14 7.95531e-14 -2.70689e-14 46.1588 -8.98166 -4.78727 -6.75471 -2.89122 11.2984 -0.042755 12.1382 1.70402 9.37978e-11 5.94644e-11 -9.68966e-10 1.44285e-10 1.05634e-10 -1.68008e-09 9.38023e-11 5.94629e-11 -9.68971e-10 7.73091 5.47488 0.417314 9.37968e-11 5.94621e-11 -9.68958e-10 2.90554 0.965183 0.102902 9.38037e-11 5.94633e-11 -9.6896e-10 10.2786 0.731801 0.0259123 9.37931e-11 5.94677e-11 -9.68954e-10 2.22167 -0.733487 -0.20892 -3.9856e-14 7.95591e-14 -2.73577e-14 -45.3336 11.3816 -5.28139 4.73718 -1.75633 -8.01122 0.106293 19.3955 -2.71541 -6.48224e-10 3.4287e-10 8.01543e-10 -1.09536e-09 6.13548e-10 1.39351e-09 -6.48226e-10 3.42871e-10 8.01552e-10 -7.73091 5.47488 -0.417314 -6.48222e-10 3.42874e-10 8.01542e-10 -2.90554 0.965183 -0.102902 -6.48232e-10 3.42873e-10 8.01542e-10 -10.2786 0.731801 -0.0259123 -6.48224e-10 3.42871e-10 8.01534e-10 -2.22167 -0.733487 0.20892 -2.03217e-16 0.0 -3.88251e-19 4.38061 -11.4813 0.468652 0.0248238 16.1229 0.292653 -0.69654 -9.35801 -0.995096 2.03217e-16 0.0 3.88251e-19 1.84541 -9.31984 -5.07092 0.0260723 12.7211 -0.250435 1.34608 -8.5628 4.01059
42.7633 84.4467 202.976 -179.687 2.4984 -174.983 1.27587 -4.50245 1.56176 5.16809 3.86613 0.398816 -3.52427 7.22346 -2.52738 5.83124 2.93087 -1.79757 -0.0 0.0 0.0 -0.0 0.0 0.0 -3.10815e-14 1.1332e-13 -3.76087e-14 66.7989 -13.1739 -7.09801 -9.45138 -4.10978 16.4613 -0.31815 17.7947 2.56528 3.6484e-10 8.09517e-11 -1.36964e-09 6.0511e-10 1.43947e-10 -2.37454e-09 3.64844e-10 8.09495e-11 -1.36964e-09 7.73091 5.47488 0.417314 3.64839e-10 8.09487e-11 -1.36963e-09 2.90554 0.965183 0.102902 3.64843e-10 8.09502e-11 -1.36963e-09 10.2786 0.731801 0.0259123 3.64834e-10 8.09552e-11 -1.36962e-09 2.22167 -0.733487 -0.20892 -3.10687e-14 1.1333e-13 -3.78467e-14 -65.4065 16.5206 -7.87149 6.75099 -2.53614 -11.6996 0.849448 28.2529 -4.24163 -6.75159e-10 4.64965e-10 1.11042e-09 -1.13255e-09 8.3295e-10 1.93082e-09 -6.7516e-10 4.64964e-10 1.11042e-09 -7.73091 5.47488 -0.417314 -6.75157e-10 4.6497e-10 1.11042e-09 -2.90554 0.965183 -0.102902 -6.75169e-10 4.64968e-10 1.11042e-09 -10.2786 0.731801 -0.0259123 -6.7516e-10 4.64965e-10 1.11041e-09 -2.22167 -0.733487 0.20892 -2.03217e-16 0.0 -3.88251e-19 5.24682 -12.7772 0.827301 0.0248013 18.8822 0.342822 -0.875201 -12.9772 -1.48104 2.03217e-16 0.0 3.88251e-19 1.50477 -12.6399 -7.46321 0.092436 19.4759 -0.411768 2.37763 -14.2558 6.03819
42.7084 84.4517 203.083 -179.776 2.6614 -174.97 0.97493 -5.49232 1.88231 6.13752 4.69694 0.456085 -4.17925 8.68373 -3.09248 7.1151 4.02812 -2.12537 -0.0 0.0 0.0 -0.0 0.0 0.0 -2.16854e-14 1.27217e-13 -3.76697e-14 80.9472 -16.5206 -8.85244 -11.127 -4.85494 19.9326 -0.639102 22.1009 3.27166 4.58859e-10 7.64947e-11 -1.49081e-09 7.65516e-10 1.3657e-10 -2.58348e-09 4.58862e-10 7.64923e-11 -1.49082e-09 7.73091 5.47488 0.417314 4.58857e-10 7.64915e-11 -1.4908e-09 2.90554 0.965183 0.102902 4.5886e-10 7.64931e-11 -1.4908e-09 10.2786 0.731801 0.0259123 4.58853e-10 7.64983e-11 -1.4908e-09 2.22167 -0.733487 -0.20892 -2.16511e-14 1.27228e-13 -3.78685e-14 -79.1893 20.0574 -9.77239 8.11588 -3.07268 -14.3126 1.71216 34.4135 -5.52493 -6.35688e-10 4.24245e-10 1.11311e-09 -1.06409e-09 7.63972e-10 1.93693e-09 -6.35688e-10 4.24244e-10 1.11311e-09 -7.73091 5.47488 -0.417314 -6.35685e-10 4.24251e-10 1.11311e-09 -2.90554 0.965183 -0.102902 -6.35699e-10 4.24249e-10 1.11311e-09 -10.2786 0.731801 -0.0259123 -6.35689e-10 4.24245e-10 1.1131e-09 -2.22167 -0.733487 0.20892 -2.03217e-16 0.0 -3.88251e-19 5.84019 -13.6795 1.12709 0.0206607 20.79 0.378776 -1.03539 -15.4904 -1.82461 2.03217e-16 0.0 3.88251e-19 1.08716 -14.8723 -9.1354 0.162984 24.0813 -0.5335 3.35166 -18.1222 7.57098
42.6746 84.4874 203.165 -179.809 2.8237 -174.957 0.835385 -5.89151 1.99942 6.52809 4.9907 0.477051 -4.35943 9.03145 -3.30886 7.58569 5.27936 -2.13003 -0.0 0.0 0.0 -0.0 0.0 0.0 -8.81289e-15 1.09755e-13 -1.71654e-14 86.3462 -18.7732 -9.73789 -11.6103 -5.03767 21.0038 -0.847479 24.4993 3.68612 2.42674e-10 2.44819e-11 -1.17576e-09 3.98459e-10 4.56163e-11 -2.03366e-09 2.42677e-10 2.44797e-11 -1.17577e-09 7.73091 5.47488 0.417314 2.42672e-10 2.44793e-11 -1.17575e-09 2.90554 0.965183 0.102902 2.42675e-10 2.44807e-11 -1.17576e-09 10.2786 0.731801 0.0259123 2.42669e-10 2.44852e-11 -1.17575e-09 2.22167 -0.733487 -0.20892 -8.77398e-15 1.09765e-13 -1.73377e-14 -84.692 21.3911 -10.5075 8.6719 -3.29637 -15.4023 2.16112 36.9295 -6.12156 -4.99005e-10 5.31702e-11 5.5131e-10 -8.44218e-10 1.12178e-10 9.64806e-10 -4.99006e-10 5.31709e-11 5.51309e-10 -7.73091 5.47488 -0.417314 -4.99002e-10 5.31764e-11 5.51307e-10 -2.90554 0.965183 -0.102902 -4.99016e-10 5.31744e-11 5.51307e-10 -10.2786 0.731801 -0.0259123 -4.99005e-10 5.31712e-11 5.513e-10 -2.22167 -0.733487 0.20892 -2.03217e-16 0.0 -3.88251e-19 6.04944 -14.0309 1.36366 0.015607 21.5043 0.392245 -1.10329 -16.4641 -1.95216 2.03217e-16 0.0 3.88251e-19 0.876328 -15.639 -9.70728 0.195139 25.6812 -0.580477 3.80625 -19.4971 8.26641
